<svg xmlns="http://www.w3.org/2000/svg" xmlns:xlink="http://www.w3.org/1999/xlink" id="Layer_1" width="327.005" height="143.32" x="0" style="enable-background:new 0 0 327.005 143.32" y="0" version="1.1" viewBox="0 0 327.005 143.32" xml:space="preserve"><style type="text/css">.st0{fill:#007680}.st1{fill:#faa819}.st2{fill:#ffce01}.st3{fill:#f48245}.st4{fill:#ee3a3d}.st5{fill:#e4e1db}.st6{fill:#bab9ab}.st7{fill:#adcb7e}.st8{fill:#77bf43}.st9{fill:#2da34a}.st10{fill:#008d48}.st11{fill:#0066b2}.st12{fill:#00bedb}.st13{fill:#9f5da4}.st14{fill:#5b2c86}.st15{fill:#5ba3ad}.st16{fill:#585ea9}.st17{fill:#7f9fd2}</style><g><path d="M136.721,87.726h5.112v13.026c0,3.6,1.024,4.934,3.38,4.934c1.91,0,3.2-0.89,4.844-3.022V87.726h5.114v21.826 h-4.18l-0.4-3.2h-0.134c-1.91,2.268-4.044,3.734-7.024,3.734c-4.666,0-6.712-3.154-6.712-8.668V87.726z" class="st0"/><path d="M161.081,87.726h4.222l0.356,2.936h0.18c1.954-1.914,4.178-3.468,7.156-3.468c4.668,0,6.712,3.156,6.712,8.668 v13.69h-5.112V96.528c0-3.6-1.024-4.934-3.422-4.934c-1.914,0-3.158,0.934-4.98,2.71v15.248h-5.112V87.726z" class="st0"/><rect width="5.112" height="21.826" x="186.285" y="87.726" class="st0"/><path d="M195.22,87.726h5.202l3.466,11.336c0.578,2.132,1.244,4.356,1.822,6.578h0.18 c0.622-2.222,1.244-4.446,1.868-6.578l3.466-11.336h4.934l-7.422,21.826h-5.914L195.22,87.726z" class="st0"/><path d="M232.338,96.706c0-3.466-1.466-5.558-4.446-5.558c-2.578,0-4.8,1.914-5.246,5.558H232.338z M227.758,87.193 c5.914,0,9.026,4.266,9.026,10.356c0,0.98-0.09,1.868-0.222,2.402h-13.87c0.444,3.956,2.934,6.18,6.444,6.18 c1.868,0,3.468-0.578,5.068-1.6l1.734,3.2c-2.09,1.378-4.712,2.356-7.468,2.356c-6.044,0-10.758-4.224-10.758-11.426 C217.712,91.548,222.646,87.193,227.758,87.193" class="st0"/><path d="M242.117,87.726h4.222l0.356,3.868h0.18c1.554-2.846,3.866-4.4,6.178-4.4c1.112,0,1.822,0.132,2.488,0.442 l-0.888,4.446c-0.756-0.222-1.334-0.356-2.268-0.356c-1.734,0-3.822,1.202-5.156,4.49v13.336h-5.112V87.726z" class="st0"/><path d="M258.696,103.774c1.956,1.512,3.824,2.446,6.046,2.446c2.354,0,3.466-1.112,3.466-2.624 c0-1.822-2.354-2.624-4.666-3.512c-2.89-1.068-6.134-2.71-6.134-6.358c0-3.822,3.066-6.534,7.956-6.534 c3.024,0,5.468,1.246,7.246,2.624l-2.356,3.112c-1.512-1.112-3.068-1.866-4.8-1.866c-2.178,0-3.202,1.02-3.202,2.398 c0,1.69,2.178,2.402,4.534,3.246c2.98,1.112,6.27,2.534,6.27,6.624c0,3.734-2.98,6.756-8.492,6.756 c-2.978,0-6.134-1.288-8.268-3.022L258.696,103.774z" class="st0"/><rect width="5.112" height="21.826" x="278.122" y="87.726" class="st0"/><path d="M291.102,91.771h-3.112v-3.824l3.378-0.222l0.624-5.956h4.268v5.956h5.556v4.046h-5.556v10.402 c0,2.578,0.978,3.824,3.066,3.824c0.756,0,1.644-0.222,2.266-0.49l0.89,3.78c-1.2,0.4-2.712,0.8-4.446,0.8 c-5.068,0-6.934-3.2-6.934-7.914V91.771z" class="st0"/><path d="M319.73,96.706c0-3.466-1.468-5.558-4.446-5.558c-2.578,0-4.8,1.914-5.246,5.558H319.73z M315.15,87.193 c5.914,0,9.026,4.266,9.026,10.356c0,0.98-0.09,1.868-0.222,2.402h-13.87c0.444,3.956,2.934,6.18,6.444,6.18 c1.868,0,3.468-0.578,5.068-1.6l1.734,3.2c-2.09,1.378-4.712,2.356-7.468,2.356c-6.046,0-10.758-4.224-10.758-11.426 C305.104,91.548,310.038,87.193,315.15,87.193" class="st0"/><polygon points="29.608 63.179 2.829 78.64 2.829 47.719" class="st1"/><polygon points="2.829 78.64 29.607 63.18 29.607 94.1" class="st2"/><polygon points="29.608 94.101 2.829 109.561 2.829 78.641" class="st3"/><polygon points="2.829 109.561 29.607 94.101 29.607 125.022" class="st4"/><polygon points="29.608 32.258 2.829 47.718 2.829 16.798" class="st5"/><polygon points="2.829 47.719 29.607 32.259 29.607 63.179" class="st6"/><polygon points="56.386 47.719 29.608 32.259 29.608 63.179" class="st7"/><polygon points="29.608 63.179 56.386 78.64 56.386 47.719" class="st8"/><polygon points="56.386 78.64 29.608 63.18 29.608 94.1" class="st9"/><polygon points="29.608 94.101 56.386 109.561 56.386 78.641" class="st10"/><polygon points="29.608 125.022 56.386 140.482 56.386 109.562" class="st11"/><polygon points="56.386 109.561 29.608 94.101 29.608 125.022" class="st12"/><polygon points="56.386 109.561 83.164 125.022 83.164 94.101" class="st13"/><polygon points="83.164 125.022 56.386 109.562 56.386 140.482" class="st14"/><polygon points="109.943 47.719 83.165 63.179 83.165 32.259" class="st0"/><polygon points="83.164 32.258 109.943 16.798 109.943 47.718" class="st15"/><polygon points="109.943 109.561 83.165 125.022 83.165 94.101" class="st16"/><polygon points="83.164 94.101 109.943 78.641 109.943 109.561" class="st17"/><polygon points="136.721 16.808 148.801 16.808 148.801 60.196 170.003 60.196 170.003 70.386 136.721 70.386" class="st0"/><rect width="12.08" height="53.577" x="177.895" y="16.808" class="st0"/><path d="M203.487,2.837h12.82l6.656,9.86h-9.614L203.487,2.837z M199.461,16.808h33.528v10.19h-21.448v10.764h18.242 v10.11h-18.242v12.324h22.27v10.19h-34.35V16.808z" class="st0"/><path d="M237.925,43.926c0-4.438,0.698-8.396,2.096-11.874c1.396-3.478,3.286-6.422,5.67-8.834 c2.384-2.41,5.176-4.246,8.382-5.506c3.204-1.26,6.614-1.89,10.232-1.89c3.778,0,7.052,0.712,9.818,2.136 c2.766,1.424,5.026,3.04,6.78,4.848l-6.656,7.478c-1.316-1.26-2.698-2.246-4.15-2.958c-1.452-0.712-3.328-1.068-5.63-1.068 c-2.082,0-3.984,0.398-5.71,1.192c-1.726,0.794-3.22,1.93-4.478,3.41c-1.262,1.48-2.234,3.286-2.918,5.424 c-0.686,2.136-1.028,4.548-1.028,7.23c0,5.534,1.246,9.82,3.74,12.862c2.492,3.04,6.258,4.56,11.298,4.56 c1.096,0,2.166-0.136,3.206-0.412c1.04-0.272,1.89-0.684,2.548-1.23v-9.206h-8.876v-9.86h19.558V64.88 c-1.918,1.808-4.438,3.342-7.56,4.602c-3.122,1.26-6.574,1.89-10.354,1.89c-3.616,0-6.998-0.59-10.15-1.768 c-3.15-1.176-5.904-2.916-8.258-5.218c-2.356-2.3-4.206-5.162-5.546-8.586C238.595,52.376,237.925,48.418,237.925,43.926" class="st0"/><polygon points="289.701 16.808 323.229 16.808 323.229 26.998 301.781 26.998 301.781 37.762 320.023 37.762 320.023 47.87 301.781 47.87 301.781 60.196 324.051 60.196 324.051 70.386 289.701 70.386" class="st0"/><path d="M185.708,81.574c0-1.732,1.334-2.934,3.158-2.934c1.82,0,3.154,1.202,3.154,2.934 c0,1.69-1.334,2.89-3.154,2.89C187.042,84.464,185.708,83.264,185.708,81.574" class="st0"/><path d="M277.544,81.574c0-1.732,1.334-2.934,3.158-2.934c1.82,0,3.154,1.202,3.154,2.934 c0,1.69-1.334,2.89-3.154,2.89C278.879,84.464,277.544,83.264,277.544,81.574" class="st0"/><polygon points="315.684 85.131 311.904 85.131 315.862 78.639 320.974 78.639" class="st0"/></g></svg>